<svg width="17" height="17" viewBox="0 0 17 17" fill="none" xmlns="http://www.w3.org/2000/svg">
<path d="M7.91718 1.74779C8.49116 1.14185 9.45611 1.14185 10.0301 1.74779V1.74779C10.407 2.14574 10.9756 2.29809 11.5011 2.14194V2.14194C12.3011 1.90417 13.1368 2.38665 13.3309 3.19839V3.19839C13.4584 3.73151 13.8746 4.14775 14.4078 4.27523V4.27523C15.2195 4.46934 15.702 5.30502 15.4642 6.10506V6.10506C15.308 6.63049 15.4604 7.1991 15.8584 7.57606V7.57606C16.4643 8.15003 16.4643 9.11498 15.8584 9.68896V9.68896C15.4604 10.0659 15.308 10.6345 15.4642 11.16V11.16C15.702 11.96 15.2195 12.7957 14.4078 12.9898V12.9898C13.8746 13.1173 13.4584 13.5335 13.3309 14.0666V14.0666C13.1368 14.8784 12.3011 15.3608 11.5011 15.1231V15.1231C10.9756 14.9669 10.407 15.1193 10.0301 15.5172V15.5172C9.45611 16.1232 8.49116 16.1232 7.91718 15.5172V15.5172C7.54022 15.1193 6.97162 14.9669 6.44618 15.1231V15.1231C5.64614 15.3608 4.81047 14.8784 4.61636 14.0666V14.0666C4.48888 13.5335 4.07263 13.1173 3.53951 12.9898V12.9898C2.72777 12.7957 2.2453 11.96 2.48306 11.16V11.16C2.63922 10.6345 2.48686 10.0659 2.08891 9.68896V9.68896C1.48298 9.11498 1.48298 8.15003 2.08891 7.57606V7.57606C2.48686 7.1991 2.63922 6.63049 2.48306 6.10506V6.10506C2.2453 5.30502 2.72777 4.46934 3.53951 4.27523V4.27523C4.07263 4.14775 4.48888 3.73151 4.61636 3.19839V3.19839C4.81047 2.38665 5.64614 1.90417 6.44618 2.14194V2.14194C6.97162 2.29809 7.54022 2.14574 7.91718 1.74779V1.74779Z" fill="#8D36FE"/>
<path d="M7.95884 11.1719C7.14075 11.1719 6.73171 10.66 6.73171 9.63608V8.19934H6.24009V7.17038L8.55716 6.94172V9.63608C8.55716 9.73516 8.594 9.82663 8.66768 9.91047C8.74136 9.99177 8.82774 10.0324 8.92683 10.0324C9.04116 10.0324 9.13008 9.99431 9.1936 9.91809C9.25965 9.83933 9.29268 9.74278 9.29268 9.62845V8.19934H8.92683V7.17038L11.1181 6.94172V9.9562H11.6098V11.1033H9.29268V10.5088C9.15803 10.7171 8.97764 10.8797 8.75152 10.9966C8.52795 11.1135 8.26372 11.1719 7.95884 11.1719Z" fill="white"/>
</svg>
